<?xml version="1.0" encoding="UTF-8"?>
<svg width="142px" height="252px" viewBox="0 0 142 252" version="1.1" xmlns="http://www.w3.org/2000/svg" xmlns:xlink="http://www.w3.org/1999/xlink">
    <!-- Generator: Sketch 51.3 (57544) - http://www.bohemiancoding.com/sketch -->
    <title>gavin-armsOnHips</title>
    <desc>Created with Sketch.</desc>
    <defs>
        <rect id="path-1" x="0" y="0" width="145" height="280"></rect>
        <path d="M0.00963245266,64.5699458 L1.87807594,13.3871444 C2.15198389,5.71072701 8.45675787,-0.275976051 15.9403143,0.00982133188 C23.4434355,0.290604725 29.2737618,6.75363676 28.9900714,14.4300542 L27.1216279,65.6128556 C26.84772,73.289273 20.5478372,79.2759761 13.0593896,78.9901787 C11.7289796,78.9400388 10.4523729,78.6943533 9.25402564,78.2832062 C3.68782487,76.3778903 -0.220254574,70.8875722 0.00963245266,64.5699458 Z" id="path-3"></path>
    </defs>
    <g id="Page-1" stroke="none" stroke-width="1" fill="none" fill-rule="evenodd">
        <g id="gavin-armsOnHips" transform="translate(-3.000000, -5.000000)">
            <mask id="mask-2" fill="white">
                <use xlink:href="#path-1"></use>
            </mask>
            <use id="Mask" fill-opacity="0" fill="#FFFFFF" fill-rule="nonzero" xlink:href="#path-1"></use>
            <g mask="url(#mask-2)">
                <g transform="translate(196.958789, 259.541095) scale(-1, 1) rotate(34.000000) translate(-196.958789, -259.541095) translate(80.458789, -36.458905)">
                    <path d="M209.509516,224.704408 C204.37066,224.463224 199.617087,222.213918 196.133911,218.360213 L144.798205,160.406719 C142.918644,158.325193 141.449607,156.270987 141.57977,153.460665 C141.709934,150.645101 142.923058,148.049748 144.984848,146.156976 C147.051845,144.264203 149.733214,143.28898 152.52392,143.420058 C155.314626,143.551137 158.507526,143.979534 160.392294,146.066302 L209.009688,201.288559 L211.805601,140.887623 C211.847253,140.053964 212.550136,139.409059 213.383183,139.451004 L214.075653,139.482462 L230.590802,140.258447 L231.288479,140.289906 C232.116319,140.331851 232.756723,141.034431 232.725484,141.873333 L229.742136,206.15419 C229.377678,214.050354 224.368985,220.887404 216.980903,223.566647 C214.570274,224.447494 212.055515,224.825 209.509516,224.704408 Z" id="Fill-40" fill="#79AF72" fill-rule="evenodd" transform="translate(187.149161, 182.087682) scale(-1, 1) rotate(86.000000) translate(-187.149161, -182.087682) "></path>
                    <g id="Group-12" stroke-width="1" fill="none" fill-rule="evenodd" transform="translate(118.118386, 247.658075)">
                        <path d="M13.0976876,33.5912604 C12.7833301,33.0396792 12.6635749,32.4374943 12.7184627,31.8606113 L12.5488094,31.4304792 L12.1047171,31.3242113 C10.7225421,31.6885585 9.20564251,31.1066151 8.4372131,29.7959774 C7.98314117,29.0166792 7.86837574,28.141234 8.05798819,27.3315736 L7.91827375,26.8558981 L7.45422222,26.7395094 C5.82255717,27.1696415 4.11105529,26.4611887 3.24282984,24.9886189 C2.44446162,23.6324377 2.48438003,21.7904604 3.69191197,20.4444 L3.7966978,19.9535434 L3.4274525,19.6246189 C2.53926785,19.4475057 1.73092002,18.9009849 1.22695008,18.0559019 C0.288867418,16.4416415 0.802816962,14.3972491 2.3696146,13.4357774 C2.3696146,13.4357774 5.17887279,11.674766 6.2915985,10.9561925 L6.46125174,10.2325585 C4.57510682,6.97367547 8.18772303,3.58828302 13.666525,1.7817283 C20.1033688,-0.333509434 33.1417198,-0.783883019 37.0637037,6.72571698 C40.3270338,12.975283 37.8121739,21.9270906 29.7885733,26.9975887 C28.3614901,27.9084566 30.9961052,26.3245585 16.9947225,34.6235774 C15.6374965,35.4281774 13.8960558,34.9626226 13.0976876,33.5912604" id="Fill-9" fill="#EEA191"></path>
                    </g>
                    <path d="M113.85836,125.846182 C136.976147,125.846182 138.922312,128.341796 139,128.574693 L139,129.013405 C139,129.013405 135.32,137.837209 135.32,137.837209 C135.32,137.837209 131.64,141.55814 124.28,149 L111.4,149 C99.1413453,135.298764 93.0120179,128.448147 93.0120179,128.448147 C93.0120179,128.410233 90.0191821,125.846182 113.85836,125.846182 Z" id="Fill-13" fill="#C6D3D9" fill-rule="evenodd"></path>
                    <g id="Fill-13" stroke-width="1" fill="none" fill-rule="evenodd" transform="translate(101.000000, 73.000000)">
                        <mask id="mask-4" fill="white">
                            <use xlink:href="#path-3"></use>
                        </mask>
                        <use id="Mask" fill="#F9AD9B" transform="translate(14.500000, 39.500000) scale(-1, 1) translate(-14.500000, -39.500000) " xlink:href="#path-3"></use>
                        <path d="M28.9897459,22.4969247 C29.2827365,14.7849339 23.2612742,8.29195142 15.5121774,8.00986685 C7.78328699,7.72274505 1.27182306,13.7371912 0.988935566,21.449182 L8.52651283e-13,56 C5.42537801,55.9848883 11.0832686,54.1510574 16.7563506,50.4531722 C20.3735438,48.0953771 24.4214666,42.7246638 27.9272509,41.2084592 L28.9897459,22.4969247 Z" fill="#ED908A" mask="url(#mask-4)" transform="translate(14.500000, 32.000000) scale(-1, 1) translate(-14.500000, -32.000000) "></path>
                    </g>
                    <path d="M160.9991,70.4287175 L160.9991,70.4083091 C160.9991,70.4083091 160.979131,69.8011591 160.95417,68.8980873 C160.929209,67.9848112 160.904248,66.760307 160.839349,65.5000881 C160.804403,64.8725297 160.754481,64.229665 160.669614,63.6276172 L160.499879,62.76026 L160.245276,62.0051491 L159.900814,61.4796327 L159.521406,61.2092214 L159.381624,61.1786088 L159.386617,61.1428941 L138.718878,58 C138.464275,59.7653269 138.259595,61.1837109 138,62.9439357 L139.093293,63.112305 C140.570987,63.3367974 142.113579,59.9847172 144.000633,60.2704348 L159.027178,62.556176 L159.231858,62.6480138 L159.321718,62.7806684 L159.4615,63.0765903 C159.646211,63.5765961 159.701126,64.7194667 159.681157,65.898052 C159.656196,67.0868415 159.596289,68.3317541 159.556352,69.2654385 C159.521406,70.2093272 159.501437,70.8368856 159.501437,70.8368856 L159.501437,70.9848465 C159.516414,71.6838343 159.875853,72.1226149 160.290206,71.9695519 C160.704559,71.8113868 161.019068,71.1226032 160.9991,70.4287175" id="Fill-29" fill="#09374D" fill-rule="evenodd" transform="translate(149.500000, 65.000000) scale(-1, 1) translate(-149.500000, -65.000000) "></path>
                    <path d="M122.409176,15.5357507 C118.79226,14.9911179 115.120085,14.8650454 111.493121,15.1424048 C100.466549,15.9946544 90.0829838,20.6694199 82.8089626,28.011878 C79.091576,31.7587505 76.4894054,36.045213 74.5051248,40.7502359 C72.0084476,46.6655542 71.4809806,52.9036178 70.541587,59.2576681 C69.6775458,65.0923 68.2207321,71.0883045 68.0097453,76.993537 C67.7975548,82.8772193 71.0849266,90.0050743 74.5051248,98.3761296 C77.0768057,104.670409 79.2191292,112.662619 82.8089626,115.826947 C92.2581573,124.157813 95.1161948,121.643887 102.867231,121.643887 C109.227702,121.643887 117.24045,113.493077 128.058097,104.193069 C130.423116,102.159845 143.383291,94.3263724 144.74866,92.959349 C153.208226,84.487282 158.553225,73.6551391 160.447083,62.3187066 L160.612858,61.2496124 C163.822872,39.6357557 146.71787,19.1666366 122.409176,15.5357507 Z" id="Fill-30" fill="#F9AD9B" fill-rule="evenodd" transform="translate(114.500000, 68.500000) scale(-1, 1) translate(-114.500000, -68.500000) "></path>
                    <path d="M152.466692,31.6561356 C151.388293,31.3612774 150.68608,30.3317725 150.801444,29.2223061 C151.137503,26.0138492 149.672887,22.4005869 147.897291,19.736868 C145.514782,16.1585889 142.204348,13.0650766 138.949088,10.3363889 C132.749549,5.11889819 123.099134,3.02990285 115.314599,1.50063832 C109.385914,0.351191121 102.659715,-0.378457969 96.600618,0.206260822 C92.1365485,0.626058928 87.6925422,1.41068158 83.4140577,2.77502543 C76.8583961,4.84902797 70.3478768,7.82259789 65.6731433,12.8651728 C61.0234889,17.9127452 58.5456796,25.4041424 60.9081253,31.8360491 C62.7790219,26.2687266 64.8455349,22.2456614 68.5371699,19.1021732 C66.8117318,22.2656518 65.8186018,25.8239405 65.7182856,29.447198 C65.5878746,33.9200468 66.7966844,38.4128861 69.1591302,42.2360474 C72.0447686,35.2281945 75.3586694,30.201835 81.0315487,26.7135127 L81.5933192,26.7784814 C85.9018986,27.5031329 87.8731113,32.7506093 91.8205526,34.5847272 C95.2664129,36.2039484 99.3091545,34.859595 102.78511,33.2903497 C106.251033,31.7360972 109.942668,29.9119744 113.679446,30.6466211 C116.337824,31.1663712 118.559827,32.9005371 120.566151,34.6996719 C122.582506,36.5137994 124.528639,38.4578645 126.991401,39.5723285 L127.523077,39.7972203 L127.703646,40.2120208 L127.538124,40.6867925 C126.494836,44.2051004 128.004594,47.5285021 129.90057,50.3921249 C131.786514,53.2207645 133.361478,56.8090388 132.032289,60.1924117 C131.565818,61.4068276 130.773321,62.5013012 130.136313,63.655746 C127.703646,68.0886141 129.574542,71.6069221 131.615976,75.7999055 C132.694375,72.6614149 133.908201,69.4379652 136.310773,67.1340732 C138.853788,64.6952461 143.172399,63.7157172 145.916046,65.9046645 C148.554361,68.0236454 148.69982,71.9517562 148.288524,75.2951483 C147.721737,79.9129275 147.11984,81.677079 145.384371,86 C153.670486,77.2542061 163.295822,62.2364286 163.957909,50.4021201 C164.263873,45.2645909 162.914621,39.8921747 159.488824,36.0190374 C157.648022,33.9400372 155.15015,32.3907823 152.466692,31.6561356 Z" id="Fill-37" fill="#593328" fill-rule="evenodd" transform="translate(112.000000, 43.000000) scale(-1, 1) translate(-112.000000, -43.000000) "></path>
                    <path d="M103.94346,78.8982722 C103.912666,77.9849807 103.881872,76.7553535 103.801808,75.4951132 C103.752538,74.8675442 103.697109,74.2297708 103.59241,73.6277127 L103.383011,72.7552386 L103.068913,72.0052171 L102.643957,71.4796918 L102.17589,71.2092759 L102.003444,71.1786627 L76.5122411,68 C76.1981431,69.7653568 76.3202567,71.1837649 76,72.9440196 L76.967991,73.1123917 C78.7971495,73.336888 80.7002135,69.9847509 83.0282334,70.2704734 L101.56617,72.5562533 L101.812521,72.6429905 L101.929538,72.7807496 L102.101984,73.0715742 C102.329859,73.5715886 102.397606,74.7195808 102.366812,75.898186 C102.342177,77.0869957 102.262112,78.3319294 102.219001,79.2656297 C102.17589,80.2044322 102.151254,80.8320012 102.151254,80.8320012 L102.145096,80.9850668 C102.169731,81.6789643 102.607004,82.1228546 103.118183,81.969789 C103.635521,81.8116212 104.023524,81.1228259 103.998889,80.4238262 C103.998889,80.4085197 103.974254,79.8013594 103.94346,78.8982722 Z" id="Fill-40" fill="#09374D" fill-rule="evenodd" transform="translate(90.000000, 75.000000) scale(-1, 1) translate(-90.000000, -75.000000) "></path>
                    <path d="M87.7437505,66.2089677 C84.3298364,65.0097922 79.662893,69.0937313 77.3176003,75.3304073 C74.9723075,81.5622673 75.8423355,87.5918568 79.2562495,88.7910323 C82.6701636,89.9902078 87.337107,85.9062687 89.6823997,79.6695927 C92.0276925,73.4377327 91.1576645,67.4081432 87.7437505,66.2089677" id="Fill-41" fill="#ED908A" fill-rule="evenodd" transform="translate(83.500000, 77.500000) scale(-1, 1) translate(-83.500000, -77.500000) "></path>
                    <path d="M94.9534957,127 C102.342405,137.584367 116.29345,146.683358 120.42623,149.120482 L124.098361,149.120482 C128.878654,142.953229 131.938764,138.652025 133.278689,136.216867 C134.034645,134.843005 136.843061,128.903247 136.391499,127.463255 C147.908178,128.953727 157.786773,131.582195 164.559522,135.101925 C166.939001,136.345664 168.71234,138.440382 169.523867,141.033602 C170.335395,143.606681 170.104961,146.345927 168.867632,148.742768 C165.245814,155.777193 163.497523,163.37558 163.657825,171.346585 C163.988447,187.102287 162.420496,203.537765 159.379772,216.428336 C155.00153,234.988744 154.645861,254.616653 158.372876,273.177061 C158.738565,274.964621 157.152971,276.777357 157.308263,278.6052 L156.972631,279.582064 L156.030859,280 L83.9577973,280 L82.9559114,279.511568 L82.7104493,278.413856 C83.0110151,277.104657 83.3115809,276.02205 83.5420147,275.236531 C84.338514,272.628205 81.6332028,270.029949 82.7853717,267.547507 C90.1191768,251.560178 93.826374,233.181043 86.5627008,217.138325 C84.5639384,212.732368 82.8507134,208.401942 81.1875827,204.212506 C79.8300272,200.783413 78.5576321,197.545664 77.2852369,194.725852 C73.4329854,186.110318 70.7829971,178.04364 69.4204322,170.782623 C68.0278107,163.269837 64.8969171,156.40158 60.163006,150.359125 C59.7772799,149.860622 59.4216104,149.30673 59.1410823,148.742768 C57.9037532,146.345927 57.6532817,143.606681 58.484847,141.033602 C59.2963746,138.440382 61.049675,136.345664 63.4491919,135.101925 C71.0484968,131.154188 82.054214,128.369623 94.9534957,127 Z" id="Fill-18" fill="#81C178" fill-rule="evenodd"></path>
                    <path d="M124.007264,146.644351 C126.268461,145.372917 130.266039,139.8248 136,130 C134.119239,135.330264 132.95459,138.412551 132.506053,139.246862 C131.689686,140.767704 129.496778,146.205507 126.651332,148.493723 C123.844412,150.750957 122.095781,152.26125 118.341404,149.538536 C114.587028,146.815822 103.990643,139.815171 97.164978,129.888721 C104.621587,138.781499 115.566736,144.406504 119.300254,146.644351 C123.033773,148.882198 120.615469,148.551501 124.007264,146.644351 Z" id="Fill-19" fill="#79AF72" fill-rule="evenodd"></path>
                    <path d="M158.052137,270.383586 C158.679031,273.420422 159,276.53085 159,279.636371 L159,280.185847 C159,291.077249 159.005015,301.370115 153.583641,309.20015 C147.540388,317.937801 135.905246,322 116.953004,322 C101.892517,322 90.9544801,317.653251 84.4347885,309.077499 C74.2841302,295.71836 78.7777023,277.521869 80.3925797,272.267504 C81.1899882,269.667304 82.1980328,267.086729 83.3715773,264.594462 L83.6123044,264.044986 C83.8931526,263.412107 84.5350915,263 85.2372121,263 L155.253685,263 C156.126321,263 156.863547,263.623067 156.998956,264.471811 C157.299865,266.45385 157.650925,268.426077 158.052137,270.383586" id="Fill-21" fill="#483B52" fill-rule="evenodd"></path>
                    <path d="M153,266 L157.489437,266 C157.674296,266.882441 157.859155,267.769385 158.065141,268.642821 C158.286972,269.570285 158.455986,270.511256 158.603873,271.452226 L158.709507,272.15908 C158.836268,273.10005 158.947183,274.050025 159,275 L153,275 L153,266" id="Fill-27" fill="#7B4C4B" fill-rule="evenodd"></path>
                    <g id="Group-7" stroke-width="1" fill="none" fill-rule="evenodd" transform="translate(0.000000, 133.000000)">
                        <path d="M1.07956379,79.5065569 C0.349069138,74.5777493 1.26839914,69.4313455 3.66362651,65.0237569 C4.60780328,63.282987 5.7706315,61.6839078 7.11732573,60.2619418 L61.029819,3.3073946 C64.8562195,-0.730786536 71.1921426,-0.847175215 75.157685,3.04425497 C78.4076408,6.23735309 79.1580128,11.2724286 76.9714982,15.2903682 C76.5491033,16.0646059 76.0273215,16.7882399 75.4160912,17.4309078 L21.4986287,74.3905154 L21.1259273,74.9016135 C20.8575823,75.3874097 20.7631646,75.9491116 20.8377049,76.490572 C20.952,77.2546889 21.419119,77.9277191 22.0750734,78.302187 L79.1381354,110.445704 C79.8288753,110.840413 80.0823122,111.72598 79.6996721,112.429372 L71.7387712,127.089285 L71.4157634,127.681349 C71.0331233,128.389802 70.1585175,128.637761 69.4677776,128.253172 L12.4047156,96.1147154 C6.34210691,92.6939003 2.10821953,86.4848172 1.07956379,79.5065569" id="Fill-47" fill="#91CC88"></path>
                    </g>
                    <path d="M134.759897,197.453849 C134.083794,197.394877 133.450962,197.56643 132.920897,197.893453 L132.428694,197.936342 L132.114982,197.550347 C131.795861,196.049259 130.51397,194.864471 128.885914,194.730445 C127.923143,194.660751 127.030687,194.96633 126.343766,195.518516 L125.829928,195.609654 L125.483763,195.218299 C125.121371,193.454519 123.612309,192.124984 121.789535,191.980236 C120.101982,191.851571 118.354932,192.762946 117.651784,194.54817 L117.229896,194.880554 L116.732284,194.676834 C116.137314,193.910207 115.23404,193.379465 114.179319,193.293688 C112.178054,193.148941 110.463456,194.60178 110.301192,196.563918 C110.301192,196.563918 109.955027,200.102198 109.80358,201.512149 L109.197791,202.005364 C105.162808,201.72123 103.648337,206.787404 104.55702,212.915063 C105.61174,220.104206 111.437045,232.874183 120.513053,233.131512 C128.079999,233.345954 135.446818,226.730441 136.452859,216.614175 C136.636759,214.812868 136.387954,218.093819 137.621166,200.713356 C137.74016,199.029992 136.458268,197.56643 134.759897,197.453849" id="Fill-38" fill="#F9AD9B" fill-rule="evenodd" transform="translate(120.965457, 212.552417) scale(-1, 1) rotate(86.000000) translate(-120.965457, -212.552417) "></path>
                    <path d="M126.171928,212.034057 C126.380426,207.383523 130.148643,203.798846 134.608462,204.01626 C139.053025,204.233674 142.505953,208.163031 142.297455,212.818868 L141.768582,224.591029 L125.643056,223.806219 L126.171928,212.034057" id="Fill-39" fill="#F9AD9B" fill-rule="evenodd" transform="translate(133.974739, 214.298950) scale(-1, 1) rotate(86.000000) translate(-133.974739, -214.298950) "></path>
                    <g id="Group-2" stroke-width="1" fill="none" fill-rule="evenodd" transform="translate(93.000000, 95.000000)">
                        <ellipse id="Oval-2" fill="#6B3D2F" fill-rule="nonzero" cx="32.3484848" cy="13.9285714" rx="1" ry="1"></ellipse>
                        <ellipse id="Oval-2" fill="#6B3D2F" fill-rule="nonzero" cx="39.7424242" cy="15.7857143" rx="1" ry="1"></ellipse>
                        <ellipse id="Oval-2" fill="#6B3D2F" fill-rule="nonzero" cx="37.8939394" cy="21.3571429" rx="1" ry="1"></ellipse>
                        <ellipse id="Oval-2" fill="#6B3D2F" fill-rule="nonzero" cx="34.1969697" cy="25.0714286" rx="1" ry="1"></ellipse>
                        <ellipse id="Oval-2" fill="#6B3D2F" fill-rule="nonzero" cx="45.2878788" cy="17.6428571" rx="1" ry="1"></ellipse>
                        <ellipse id="Oval-2" fill="#6B3D2F" fill-rule="nonzero" cx="48.9848485" cy="12.0714286" rx="1" ry="1"></ellipse>
                        <ellipse id="Oval-2" fill="#6B3D2F" fill-rule="nonzero" cx="60.0757576" cy="4.64285714" rx="1" ry="1"></ellipse>
                        <ellipse id="Oval-2" fill="#6B3D2F" fill-rule="nonzero" cx="6.46969697" cy="5.57142857" rx="1" ry="1"></ellipse>
                        <ellipse id="Oval-2" fill="#6B3D2F" fill-rule="nonzero" cx="0.924242424" cy="0.928571429" rx="1" ry="1"></ellipse>
                        <ellipse id="Oval-2" fill="#6B3D2F" fill-rule="nonzero" cx="24.9545455" cy="21.3571429" rx="1" ry="1"></ellipse>
                        <ellipse id="Oval-2" fill="#6B3D2F" fill-rule="nonzero" cx="48.9848485" cy="21.3571429" rx="1" ry="1"></ellipse>
                        <ellipse id="Oval-2" fill="#6B3D2F" fill-rule="nonzero" cx="54.530303" cy="17.0857143" rx="1" ry="1"></ellipse>
                        <ellipse id="Oval-2" fill="#6B3D2F" fill-rule="nonzero" cx="56.3787879" cy="10.2142857" rx="1" ry="1"></ellipse>
                        <ellipse id="Oval-2" fill="#6B3D2F" fill-rule="nonzero" cx="12.0151515" cy="10.2142857" rx="1" ry="1"></ellipse>
                        <ellipse id="Oval-2" fill="#6B3D2F" fill-rule="nonzero" cx="12.0151515" cy="4.64285714" rx="1" ry="1"></ellipse>
                        <ellipse id="Oval-2" fill="#6B3D2F" fill-rule="nonzero" cx="30.5" cy="19.5" rx="1" ry="1"></ellipse>
                        <ellipse id="Oval-2" fill="#6B3D2F" fill-rule="nonzero" cx="24.9545455" cy="13.9285714" rx="1" ry="1"></ellipse>
                        <ellipse id="Oval-2" fill="#6B3D2F" fill-rule="nonzero" cx="17.5606061" cy="10.2142857" rx="1" ry="1"></ellipse>
                        <ellipse id="Oval-2" fill="#6B3D2F" fill-rule="nonzero" cx="17.5606061" cy="15.7857143" rx="1" ry="1"></ellipse>
                        <ellipse id="Oval-2" fill="#6B3D2F" fill-rule="nonzero" cx="43.4393939" cy="25.0714286" rx="1" ry="1"></ellipse>
                    </g>
                    <path d="M124.464218,91.7285817 C124.602301,91.8677038 128.013462,95.1970397 135.505741,94.132036 C142.977564,93.0670323 145.192005,88.9653288 145.294289,88.7686389 C145.631825,88.1018123 146.470551,87.8139735 147.181423,88.1257989 C147.88718,88.432827 148.199146,89.2243838 147.866724,89.8912104 C147.759326,90.1166842 145.023237,95.4656893 135.930219,96.7609641 C126.852542,98.0514415 122.541285,93.705075 122.367403,93.5179798 C121.840642,92.9758833 121.88667,92.145948 122.464572,91.6518247 C123.037361,91.152904 123.932343,91.1912825 124.464218,91.7285817" id="Fill-31" fill="#D07677" fill-rule="evenodd"></path>
                    <path d="M155.67237,64.2226541 L155.967245,65.9901724 C156.204199,67.4196408 155.13001,68.7525235 153.571383,68.9698413 C152.012757,69.1871591 150.559442,68.2068143 150.322489,66.7773459 L150.032879,65.0098276 C149.795926,63.5803592 150.864849,62.2474765 152.428741,62.0301587 C153.982102,61.8128409 155.435417,62.7931857 155.67237,64.2226541" id="Fill-32" fill="#09374D" fill-rule="evenodd"></path>
                    <path d="M118.571385,74.9710766 C117.012759,75.1834592 115.559446,74.2036029 115.322493,72.7748469 L115.032884,71.0082095 C114.79593,69.5794535 115.864853,68.2472351 117.423478,68.0300255 C118.982104,67.812816 120.440683,68.7974992 120.677636,70.2262552 L120.967245,71.9880658 C121.204198,73.4168217 120.130011,74.753867 118.571385,74.9710766" id="Fill-33" fill="#09374D" fill-rule="evenodd"></path>
                    <path d="M116.865916,79.0909647 C118.203157,78.7049962 119.553951,79.5821974 119.91085,81.0609078 C120.276784,82.5346058 119.481668,84.063442 118.15798,84.4694608 C117.34931,84.7150772 116.102423,85.4469135 115.858467,86.1787499 C115.533192,87.1662278 114.756147,87.8228755 113.884229,87.9682402 C113.477636,88.0384163 113.048453,87.9933031 112.637342,87.8228755 C111.34076,87.2965548 110.676657,85.6975424 111.155534,84.25392 C112.402421,80.489474 116.414145,79.2263043 116.865916,79.0909647" id="Fill-34" fill="#ED908A" fill-rule="evenodd"></path>
                    <path d="M148.002599,75.7030001 C147.93638,74.2771203 149.143597,73.0795676 150.707375,73.0050118 C151.232031,72.9863728 155.933553,72.8838586 158.414205,75.8427922 C159.366735,76.9751086 159.132423,78.5966974 157.894644,79.4680684 L156.600833,79.9713201 C155.617741,80.1064525 154.578618,79.7616319 153.936807,78.9881154 C153.452902,78.4149676 151.884029,78.1447028 150.941687,78.177321 C149.388096,78.2285781 148.073911,77.1288799 148.002599,75.7030001" id="Fill-35" fill="#ED908A" fill-rule="evenodd"></path>
                    <path d="M104.55052,54.9652984 C108.394241,51.3312314 116.103997,51.0211922 116.974273,51.0008617 C118.062119,50.9703661 118.965867,51.7530882 118.99934,52.7441974 C119.027233,53.7302239 118.168114,54.5688548 117.091426,54.5841026 C115.177934,54.6400113 109.716391,55.2499247 107.384497,57.4506953 L106.263179,57.9792869 C105.677416,58.0606086 105.06376,57.9030477 104.600728,57.4964388 C103.819711,56.8102863 103.797396,55.676864 104.55052,54.9652984" id="Fill-36" fill="#593328" fill-rule="evenodd"></path>
                    <path d="M143.24044,51.7263255 C142.295031,51.9558589 141.329614,51.4703073 141.064499,50.6404555 C140.804386,49.8150178 141.354624,48.9586813 142.290029,48.7247337 C143.040354,48.5393413 149.738252,46.9855762 154.090135,49.0955186 C154.940503,49.5104445 155.250637,50.4550631 154.780434,51.2098751 C154.510317,51.6512857 154.025107,51.9293743 153.49988,52 L152.389399,51.8278499 C149.763263,50.5521734 144.891155,51.3246419 143.24044,51.7263255" id="Fill-37" fill="#593328" fill-rule="evenodd"></path>
                    <g id="Group" stroke-width="1" fill="none" fill-rule="evenodd" transform="translate(102.000000, 52.000000)">
                        <ellipse id="Oval-3" stroke="#09374D" stroke-width="2" fill-rule="nonzero" cx="13.5364653" cy="19.291939" rx="12.5364653" ry="12.5043573"></ellipse>
                        <ellipse id="Oval-3" stroke="#09374D" stroke-width="2" fill-rule="nonzero" cx="45.9371365" cy="13.9768358" rx="12.0628635" ry="12.0318788"></ellipse>
                    </g>
                    <path d="M126.667082,63.632097 C128.644663,62.5722629 130.147931,61.9329462 131.176886,61.7141468 C132.205841,61.4953474 133.76924,61.4953474 135.867082,61.7141468 L135.68669,63.632097 C133.734298,63.4079415 132.23103,63.4079415 131.176886,63.632097 C130.122743,63.8562525 128.619475,64.4955693 126.667082,65.5500472 L126.667082,63.632097 Z" id="Path-7" fill="#09374D" fill-rule="nonzero"></path>
                    <path d="M142.114147,223.911231 L142.945797,205.100429 C142.987449,204.26677 143.690332,203.621865 144.523379,203.66381 L145.215849,203.695269 L161.730998,204.471253 L162.428675,204.502712 C163.256515,204.544657 163.896919,205.247237 163.86568,206.086139 L163.233284,220.107018 C162.990312,225.371128 155.9506,226.639199 142.114147,223.911231 Z" id="Fill-40" fill="#79AF72" fill-rule="evenodd" transform="translate(152.990461, 214.484914) scale(-1, 1) rotate(86.000000) translate(-152.990461, -214.484914) "></path>
                </g>
            </g>
        </g>
    </g>
</svg>